<svg width="120" height="120" viewBox="0 0 120 120" fill="none" xmlns="http://www.w3.org/2000/svg">
<g clip-path="url(#clip0_183_87)">
<path d="M102 0H18C8.05887 0 0 8.05887 0 18V102C0 111.941 8.05887 120 18 120H102C111.941 120 120 111.941 120 102V18C120 8.05887 111.941 0 102 0Z" fill="#2C3527"/>
<path d="M103.08 76H85.4033V74.248C85.8076 74.2181 86.3991 74.1732 87.1777 74.1133C87.9714 74.0534 88.5179 73.9635 88.8174 73.8438C89.3714 73.6191 89.7458 73.3271 89.9404 72.9678C90.1501 72.5934 90.2549 72.1217 90.2549 71.5527V48.957C90.2549 48.4479 90.1576 47.9987 89.9629 47.6094C89.7682 47.2201 89.3864 46.9056 88.8174 46.666C88.458 46.5163 87.9264 46.3665 87.2227 46.2168C86.5189 46.0521 85.9124 45.9398 85.4033 45.8799V44.1279H103.08V45.8799C102.631 45.9248 102.069 45.9922 101.396 46.082C100.722 46.1569 100.153 46.2692 99.6885 46.4189C99.1045 46.6136 98.7152 46.9206 98.5205 47.3398C98.3258 47.7441 98.2285 48.2083 98.2285 48.7324V71.3057C98.2285 71.8447 98.3258 72.3089 98.5205 72.6982C98.7301 73.0726 99.1195 73.3796 99.6885 73.6191C100.003 73.7539 100.52 73.8887 101.238 74.0234C101.972 74.1432 102.586 74.2181 103.08 74.248V76Z" fill="#E8E0D0"/>
<path d="M69.0293 76.8535C67.0827 76.8535 65.2633 76.6139 63.5713 76.1348C61.8942 75.6556 60.4717 75.0866 59.3037 74.4277L57.7539 76H55.8447L55.5527 64.4775H57.4844C57.9186 65.5706 58.4727 66.7236 59.1465 67.9365C59.8203 69.1494 60.599 70.235 61.4824 71.1934C62.3958 72.1966 63.4141 73.0127 64.5371 73.6416C65.6751 74.2705 67.0003 74.585 68.5127 74.585C70.5492 74.585 72.1064 74.0908 73.1846 73.1025C74.2777 72.0993 74.8242 70.8415 74.8242 69.3291C74.8242 68.0863 74.36 67.0456 73.4316 66.207C72.5182 65.3535 71.0957 64.6198 69.1641 64.0059C67.9062 63.6016 66.7458 63.2272 65.6826 62.8828C64.6344 62.5384 63.6462 62.1865 62.7178 61.8271C60.5765 60.9736 58.9818 59.7533 57.9336 58.166C56.9004 56.5788 56.3838 54.8044 56.3838 52.8428C56.3838 51.5999 56.6533 50.4095 57.1924 49.2715C57.7314 48.1185 58.5176 47.0853 59.5508 46.1719C60.5391 45.3184 61.8044 44.6221 63.3467 44.083C64.889 43.5439 66.5661 43.2744 68.3779 43.2744C70.1449 43.2744 71.7995 43.5215 73.3418 44.0156C74.8841 44.4948 76.097 44.9814 76.9805 45.4756L78.3506 44.1279H80.3047L80.4844 54.999H78.5527C78.1035 53.8311 77.5719 52.6406 76.958 51.4277C76.359 50.1999 75.7227 49.1816 75.0488 48.373C74.3151 47.5046 73.4691 46.8158 72.5107 46.3066C71.5524 45.7826 70.4294 45.5205 69.1416 45.5205C67.5244 45.5205 66.1992 45.9772 65.166 46.8906C64.1478 47.804 63.6387 48.9346 63.6387 50.2822C63.6387 51.555 64.0804 52.5957 64.9639 53.4043C65.8623 54.2129 67.2549 54.9242 69.1416 55.5381C70.2497 55.9124 71.3802 56.2868 72.5332 56.6611C73.6862 57.0355 74.7119 57.3949 75.6104 57.7393C77.7816 58.5778 79.4287 59.7383 80.5518 61.2207C81.6898 62.6882 82.2588 64.515 82.2588 66.7012C82.2588 68.0788 81.9368 69.4115 81.293 70.6992C80.6491 71.987 79.7806 73.0576 78.6875 73.9111C77.4896 74.8545 76.1045 75.5807 74.5322 76.0898C72.96 76.599 71.1257 76.8535 69.0293 76.8535Z" fill="#E8E0D0"/>
<path d="M53.6436 45.8799C53.2243 45.9248 52.6253 46.0072 51.8467 46.127C51.068 46.2467 50.3643 46.5387 49.7354 47.0029C49.1813 47.4072 48.7845 48.1035 48.5449 49.0918C48.3203 50.0651 48.208 51.5026 48.208 53.4043V76.1797H44.21L24.3545 51.54V66.499C24.3545 68.3558 24.4743 69.7708 24.7139 70.7441C24.9684 71.7025 25.3727 72.4062 25.9268 72.8555C26.3311 73.1849 26.9749 73.4769 27.8584 73.7314C28.7419 73.986 29.4456 74.1582 29.9697 74.248V76H16.2686V74.248C16.8525 74.2031 17.5189 74.0983 18.2676 73.9336C19.0312 73.7539 19.6676 73.4844 20.1768 73.125C20.7607 72.6908 21.1576 72.0394 21.3672 71.1709C21.5918 70.2874 21.7041 68.8125 21.7041 66.7461V51.6523C21.7041 50.9036 21.5843 50.1999 21.3447 49.541C21.1201 48.8672 20.7607 48.2907 20.2666 47.8115C19.7425 47.3024 19.1361 46.9056 18.4473 46.6211C17.7734 46.3216 17.0023 46.0895 16.1338 45.9248V44.1279H28.1279L45.5576 65.6904V53.6289C45.5576 51.7122 45.4303 50.2897 45.1758 49.3613C44.9212 48.418 44.5169 47.7217 43.9629 47.2725C43.5286 46.9281 42.8848 46.6361 42.0312 46.3965C41.1777 46.1419 40.4889 45.9697 39.9648 45.8799V44.1279H53.6436V45.8799Z" fill="#E8E0D0"/>
<path d="M28 84H92" stroke="#6B8F71" stroke-width="2" stroke-linecap="round"/>
</g>
<defs>
<clipPath id="clip0_183_87">
<rect width="120" height="120" fill="white"/>
</clipPath>
</defs>
</svg>
