<svg width="104" height="104" viewBox="0 0 104 104" fill="none" xmlns="http://www.w3.org/2000/svg">
<rect width="104" height="104" rx="25" fill="#22444E"/>
<path opacity="0.8" d="M14 78C22.4444 74 30.8889 74 39.3333 78C47.7778 82 56.2222 82 64.6667 78C73.1111 74 81.5556 74 90 78" stroke="white" stroke-width="2" stroke-linecap="round"/>
<path opacity="0.6" d="M14 88C22.4444 84 30.8889 84 39.3333 88C47.7778 92 56.2222 92 64.6667 88C73.1111 84 81.5556 84 90 88" stroke="white" stroke-width="2" stroke-linecap="round"/>
<path d="M67.5308 63.6152C66.5464 63.6152 65.5005 63.5332 64.3931 63.3691C63.2856 63.2461 62.3628 63.1025 61.6245 62.9385C60.1069 62.6514 58.9995 62.4258 58.3022 62.2617C57.646 62.0566 57.0308 61.9131 56.4565 61.8311C55.9233 59.2881 55.5337 57.2168 55.2876 55.6172C55.0415 53.9766 54.9185 52.7871 54.9185 52.0488C54.9185 51.8027 55.2466 51.6797 55.9028 51.6797C56.6411 51.6797 57.1538 51.8643 57.4409 52.2334C58.8765 58.1396 62.2808 61.0928 67.6538 61.0928C69.7046 61.0928 71.4478 60.4775 72.8833 59.2471C74.3188 58.0166 75.0366 56.2734 75.0366 54.0176C75.0366 53.2793 74.8726 52.377 74.5444 51.3105C74.2573 50.2441 73.5806 49.3213 72.5142 48.542C71.6938 47.9268 71.0171 47.4756 70.4839 47.1885C69.9507 46.8604 69.4175 46.5732 68.8843 46.3271C68.3511 46.04 67.6743 45.6504 66.854 45.1582L64.3931 43.6816C63.1216 42.9023 61.8501 42.0205 60.5786 41.0361C59.3071 40.0107 58.2407 38.8213 57.3794 37.4678C56.5591 36.1143 56.1489 34.5762 56.1489 32.8535C56.1489 30.6797 56.7026 28.793 57.8101 27.1934C58.9585 25.5527 60.4351 24.2812 62.2397 23.3789C64.0854 22.4766 66.0747 22.0254 68.2075 22.0254C69.1099 22.0254 69.9507 22.0869 70.73 22.21C71.5503 22.292 72.2271 22.3945 72.7603 22.5176C73.9907 22.8047 74.8521 23.0303 75.3442 23.1943C75.8774 23.3584 76.5952 23.543 77.4976 23.748C77.9897 25.8809 78.2358 28.8135 78.2358 32.5459C78.2358 32.833 78.0308 32.9766 77.6206 32.9766C76.5952 32.9766 76.062 32.7715 76.021 32.3613C75.8159 31.1309 75.3647 29.9209 74.6675 28.7314C73.9702 27.542 73.0269 26.5576 71.8374 25.7783C70.6479 24.958 69.2329 24.5479 67.5923 24.5479C65.9106 24.5479 64.5981 24.876 63.6548 25.5322C62.7114 26.1475 62.0347 26.9473 61.6245 27.9316C61.2554 28.875 61.0708 29.8799 61.0708 30.9463C61.0708 31.9717 61.3169 32.9971 61.8091 34.0225C62.3013 35.0479 63.019 35.9092 63.9624 36.6064C65.2339 37.5498 66.5054 38.4316 67.7769 39.252C69.0894 40.0723 70.4429 40.9131 71.8374 41.7744C73.1499 42.5947 74.4624 43.5176 75.7749 44.543C77.0874 45.5273 78.1743 46.6553 79.0356 47.9268C79.938 49.1982 80.3892 50.6748 80.3892 52.3564C80.3892 54.5303 79.7944 56.4785 78.605 58.2012C77.4155 59.8828 75.8364 61.2158 73.8677 62.2002C71.9399 63.1436 69.8276 63.6152 67.5308 63.6152Z" fill="white"/>
<path d="M42.7925 46.1807C42.4071 46.1807 42.0096 45.9036 41.6001 45.3496L27.5806 25.4766V40.9053C27.5806 42.5433 27.6649 43.6634 27.8335 44.2656C27.8817 44.362 28.0864 44.4824 28.4478 44.627C28.8332 44.7474 29.2427 44.8558 29.6763 44.9521C30.1099 45.0244 30.3989 45.0605 30.5435 45.0605C30.6157 45.0605 30.6519 45.2051 30.6519 45.4941C30.6759 45.7832 30.6639 45.988 30.6157 46.1084C29.4113 46.0602 28.4598 46.0241 27.7612 46C27.0868 45.9518 26.6532 45.9277 26.4604 45.9277L22.3052 46.1084C22.2329 46.0361 22.1968 45.8555 22.1968 45.5664C22.1968 45.2292 22.2329 45.0605 22.3052 45.0605C22.5461 45.0605 22.8833 45.0244 23.3169 44.9521C23.7505 44.8558 24.16 44.7474 24.5454 44.627C24.9308 44.4824 25.1476 44.3379 25.1958 44.1934C25.4367 43.6152 25.5571 42.4831 25.5571 40.7969V26.5967C25.5571 25.3682 25.4728 24.4648 25.3042 23.8867C25.256 23.7422 25.0392 23.6217 24.6538 23.5254C24.2925 23.4049 23.895 23.3086 23.4614 23.2363C23.0278 23.1641 22.6906 23.1279 22.4497 23.1279C22.3534 23.1279 22.3052 22.9714 22.3052 22.6582C22.3052 22.3691 22.3534 22.1764 22.4497 22.0801C23.3892 22.1042 24.16 22.1283 24.7622 22.1523C25.3885 22.1523 25.8462 22.1523 26.1353 22.1523C26.7616 22.1523 27.3156 22.1523 27.7974 22.1523C28.2791 22.1283 28.6886 22.1042 29.0259 22.0801C29.4836 22.8991 30.7241 24.79 32.7476 27.7529C34.7951 30.6917 37.6375 34.7025 41.2749 39.7852C41.3472 39.3757 41.3833 38.8818 41.3833 38.3037V27.0664C41.3833 25.5488 41.299 24.4889 41.1304 23.8867C41.0822 23.7422 40.8654 23.6097 40.48 23.4893C40.0946 23.3688 39.6851 23.2725 39.2515 23.2002C38.8179 23.1038 38.4927 23.0557 38.2759 23.0557C38.1795 23.0557 38.1313 22.9111 38.1313 22.6221C38.1313 22.3571 38.1795 22.1764 38.2759 22.0801C38.4927 22.0801 38.854 22.1042 39.3599 22.1523C39.8657 22.1764 40.4077 22.2126 40.9858 22.2607C41.5881 22.2848 42.106 22.2969 42.5396 22.2969C43.1659 22.2969 43.9608 22.2607 44.9243 22.1885C45.8638 22.1162 46.4178 22.0801 46.5864 22.0801C46.6346 22.2728 46.6587 22.4535 46.6587 22.6221C46.6587 22.9111 46.6105 23.0557 46.5142 23.0557C46.3696 23.0557 46.0685 23.1038 45.6108 23.2002C45.1532 23.2965 44.7196 23.4049 44.3101 23.5254C43.9246 23.6458 43.7078 23.7663 43.6597 23.8867C43.5633 24.2721 43.491 24.7419 43.4429 25.2959C43.3947 25.8499 43.3706 26.5003 43.3706 27.2471V40.9775C43.3706 42.471 43.4067 44.1572 43.479 46.0361C43.3826 46.1325 43.1538 46.1807 42.7925 46.1807Z" fill="white"/>
</svg>
