<svg width="120" height="120" viewBox="0 0 120 120" fill="none" xmlns="http://www.w3.org/2000/svg">
<path d="M60 118C92.0325 118 118 92.0325 118 60C118 27.9675 92.0325 2 60 2C27.9675 2 2 27.9675 2 60C2 92.0325 27.9675 118 60 118Z" fill="#22444E"/>
<path opacity="0.8" d="M28 86C34.6667 82 41.3333 82 48 86C54.6667 90 61.3333 90 68 86C74.6667 82 81.3333 82 88 86" stroke="white" stroke-width="2" stroke-linecap="round"/>
<path opacity="0.6" d="M28 96C34.6667 92 41.3333 92 48 96C54.6667 100 61.3333 100 68 96C74.6667 92 81.3333 92 88 96" stroke="white" stroke-width="2" stroke-linecap="round"/>
<path d="M62.2852 72.7793C61.681 72.7793 61.0579 72.3451 60.416 71.4766L38.4395 40.3242V64.5098C38.4395 67.0775 38.5716 68.8333 38.8359 69.7773C38.9115 69.9284 39.2324 70.1172 39.7988 70.3438C40.403 70.5326 41.0449 70.7025 41.7246 70.8535C42.4043 70.9668 42.8574 71.0234 43.084 71.0234C43.1973 71.0234 43.2539 71.25 43.2539 71.7031C43.2917 72.1562 43.2728 72.4772 43.1973 72.666C41.3092 72.5905 39.8177 72.5339 38.7227 72.4961C37.6654 72.4206 36.9857 72.3828 36.6836 72.3828L30.1699 72.666C30.0566 72.5527 30 72.2695 30 71.8164C30 71.2878 30.0566 71.0234 30.1699 71.0234C30.5475 71.0234 31.0762 70.9668 31.7559 70.8535C32.4355 70.7025 33.0775 70.5326 33.6816 70.3438C34.2858 70.1172 34.6257 69.8906 34.7012 69.6641C35.0788 68.7578 35.2676 66.9831 35.2676 64.3398V42.0801C35.2676 40.1543 35.1354 38.7383 34.8711 37.832C34.7956 37.6055 34.4557 37.4167 33.8516 37.2656C33.2852 37.0768 32.6621 36.9258 31.9824 36.8125C31.3027 36.6992 30.7741 36.6426 30.3965 36.6426C30.2454 36.6426 30.1699 36.3971 30.1699 35.9062C30.1699 35.4531 30.2454 35.151 30.3965 35C31.8691 35.0378 33.0775 35.0755 34.0215 35.1133C35.0033 35.1133 35.7207 35.1133 36.1738 35.1133C37.1556 35.1133 38.0241 35.1133 38.7793 35.1133C39.5345 35.0755 40.1764 35.0378 40.7051 35C41.4225 36.2839 43.3672 39.248 46.5391 43.8926C49.7487 48.4993 54.2044 54.7865 59.9062 62.7539C60.0195 62.112 60.0762 61.3379 60.0762 60.4316V42.8164C60.0762 40.4375 59.944 38.776 59.6797 37.832C59.6042 37.6055 59.2643 37.3978 58.6602 37.209C58.056 37.0202 57.4141 36.8691 56.7344 36.7559C56.0547 36.6048 55.5449 36.5293 55.2051 36.5293C55.054 36.5293 54.9785 36.3027 54.9785 35.8496C54.9785 35.4342 55.054 35.151 55.2051 35C55.5449 35 56.1113 35.0378 56.9043 35.1133C57.6973 35.151 58.5469 35.2077 59.4531 35.2832C60.3971 35.321 61.209 35.3398 61.8887 35.3398C62.8704 35.3398 64.1165 35.2832 65.627 35.1699C67.0996 35.0566 67.9681 35 68.2324 35C68.3079 35.3021 68.3457 35.5853 68.3457 35.8496C68.3457 36.3027 68.2702 36.5293 68.1191 36.5293C67.8926 36.5293 67.4206 36.6048 66.7031 36.7559C65.9857 36.9069 65.306 37.0768 64.6641 37.2656C64.0599 37.4544 63.7201 37.6432 63.6445 37.832C63.4935 38.4362 63.3802 39.1725 63.3047 40.041C63.2292 40.9095 63.1914 41.929 63.1914 43.0996V64.623C63.1914 66.9642 63.248 69.6074 63.3613 72.5527C63.2103 72.7038 62.8516 72.7793 62.2852 72.7793Z" fill="white"/>
<path d="M76.1016 73.0371C76.0339 72.9694 76 72.8509 76 72.6816C76 72.36 76.0339 72.1992 76.1016 72.1992C76.237 72.1992 76.4316 72.1738 76.6855 72.123C76.9395 72.0723 77.1764 72.0046 77.3965 71.9199C77.6165 71.8184 77.7435 71.7253 77.7773 71.6406C77.8451 71.3698 77.8958 71.0566 77.9297 70.7012C77.9635 70.3457 77.9805 69.9479 77.9805 69.5078V59.707C77.9805 58.7253 77.9128 58.0143 77.7773 57.5742C77.7435 57.4727 77.6165 57.3796 77.3965 57.2949C77.1934 57.2103 76.9648 57.1426 76.7109 57.0918C76.474 57.0241 76.2878 56.9902 76.1523 56.9902C76.0846 56.9902 76.0508 56.8633 76.0508 56.6094C76.0508 56.3385 76.0677 56.1862 76.1016 56.1523L77.5234 56.2285C77.9466 56.2454 78.319 56.2708 78.6406 56.3047C78.9792 56.3216 79.2585 56.3216 79.4785 56.3047L82.7285 56.1523C82.7793 56.3047 82.8047 56.4401 82.8047 56.5586C82.8047 56.8464 82.7708 56.9902 82.7031 56.9902C82.6016 56.9902 82.4238 57.0241 82.1699 57.0918C81.916 57.1595 81.6706 57.2357 81.4336 57.3203C81.2135 57.4049 81.0866 57.4896 81.0527 57.5742C80.985 57.8451 80.9342 58.1667 80.9004 58.5391C80.8665 58.8945 80.8496 59.3177 80.8496 59.8086V69.3555C80.8496 70.2865 80.9258 71.0482 81.0781 71.6406C81.112 71.7083 81.2305 71.793 81.4336 71.8945C81.6536 71.9792 81.8822 72.0553 82.1191 72.123C82.373 72.1738 82.5508 72.1992 82.6523 72.1992C82.7201 72.1992 82.7539 72.36 82.7539 72.6816C82.7539 72.7832 82.737 72.9017 82.7031 73.0371L79.4785 72.8848C78.8861 72.8509 78.2767 72.8594 77.6504 72.9102C77.0241 72.9609 76.5078 73.0033 76.1016 73.0371Z" fill="white"/>
<path d="M79.2812 51.2148C78.2318 51.2148 76.6745 50.9779 74.6094 50.5039C74.5078 50.0977 74.4062 49.6152 74.3047 49.0566C74.2201 48.4811 74.1439 47.9395 74.0762 47.4316C74.0254 46.9238 74 46.5768 74 46.3906C74.0339 46.2552 74.1693 46.1875 74.4062 46.1875C74.8464 46.1875 75.0918 46.2552 75.1426 46.3906C75.2103 46.6953 75.3288 47.0339 75.498 47.4062C75.6673 47.7617 75.9043 48.1426 76.209 48.5488C76.4967 48.972 76.8861 49.319 77.377 49.5898C77.8848 49.8438 78.4518 49.9707 79.0781 49.9707C79.8737 49.9707 80.5339 49.7337 81.0586 49.2598C81.5833 48.7858 81.8457 48.0749 81.8457 47.127C81.8457 46.4499 81.6426 45.9251 81.2363 45.5527C80.847 45.1634 80.4238 44.8079 79.9668 44.4863C79.8483 44.4186 79.6621 44.3086 79.4082 44.1562C79.1543 44.0039 78.9004 43.8516 78.6465 43.6992C78.4095 43.5299 78.2233 43.4115 78.0879 43.3438C77.7663 43.1406 77.4954 42.9714 77.2754 42.8359C77.0723 42.7005 76.8776 42.5651 76.6914 42.4297C76.5052 42.2773 76.2767 42.0911 76.0059 41.8711C75.4642 41.431 75.041 40.9316 74.7363 40.373C74.4486 39.8145 74.3047 39.1966 74.3047 38.5195C74.3047 37.6732 74.5501 36.9115 75.041 36.2344C75.5488 35.5404 76.2005 34.9987 76.9961 34.6094C77.7917 34.2031 78.6296 34 79.5098 34C79.9837 34 80.3984 34.0254 80.7539 34.0762C81.1094 34.127 81.3802 34.1777 81.5664 34.2285C81.7526 34.2793 81.9811 34.3385 82.252 34.4062C82.5228 34.474 82.9544 34.5755 83.5469 34.7109C83.75 35.8451 83.8516 37.1484 83.8516 38.6211C83.8346 38.7734 83.7331 38.8496 83.5469 38.8496C83.0898 38.8496 82.8444 38.7734 82.8105 38.6211C82.7428 38.0964 82.5566 37.5801 82.252 37.0723C81.9473 36.5475 81.5495 36.1074 81.0586 35.752C80.5846 35.3965 80.043 35.2188 79.4336 35.2188C78.6549 35.2188 78.054 35.4388 77.6309 35.8789C77.2246 36.319 77.0215 36.9115 77.0215 37.6562C77.0215 38.1302 77.1061 38.5026 77.2754 38.7734C77.4447 39.0273 77.6647 39.3066 77.9355 39.6113C78.1217 39.8145 78.4264 40.0684 78.8496 40.373C79.2728 40.6777 79.7467 40.9993 80.2715 41.3379C80.7962 41.6595 81.304 41.9642 81.7949 42.252C82.7259 42.7936 83.4453 43.3861 83.9531 44.0293C84.4609 44.6556 84.7148 45.4935 84.7148 46.543C84.7148 47.4401 84.4609 48.2441 83.9531 48.9551C83.4453 49.666 82.7767 50.2246 81.9473 50.6309C81.1348 51.0202 80.2461 51.2148 79.2812 51.2148Z" fill="white"/>
</svg>
