<svg width="120" height="120" viewBox="0 0 120 120" fill="none" xmlns="http://www.w3.org/2000/svg">
<g clip-path="url(#clip0_183_82)">
<path d="M104 0H16C7.16344 0 0 7.16344 0 16V104C0 112.837 7.16344 120 16 120H104C112.837 120 120 112.837 120 104V16C120 7.16344 112.837 0 104 0Z" fill="#2C3527"/>
<path d="M99.334 61H83.1943V59.4004C83.5635 59.373 84.1035 59.332 84.8145 59.2773C85.5391 59.2227 86.0381 59.1406 86.3115 59.0312C86.8174 58.8262 87.1592 58.5596 87.3369 58.2314C87.5283 57.8896 87.624 57.459 87.624 56.9395V36.3086C87.624 35.8438 87.5352 35.4336 87.3574 35.0781C87.1797 34.7227 86.8311 34.4355 86.3115 34.2168C85.9834 34.0801 85.498 33.9434 84.8555 33.8066C84.2129 33.6562 83.6592 33.5537 83.1943 33.499V31.8994H99.334V33.499C98.9238 33.54 98.4111 33.6016 97.7959 33.6836C97.1807 33.752 96.6611 33.8545 96.2373 33.9912C95.7041 34.1689 95.3486 34.4492 95.1709 34.832C94.9932 35.2012 94.9043 35.625 94.9043 36.1035V56.7139C94.9043 57.2061 94.9932 57.6299 95.1709 57.9854C95.3623 58.3271 95.7178 58.6074 96.2373 58.8262C96.5244 58.9492 96.9961 59.0723 97.6523 59.1953C98.3223 59.3047 98.8828 59.373 99.334 59.4004V61Z" fill="#E8E0D0"/>
<path d="M68.2441 61.7793C66.4668 61.7793 64.8057 61.5605 63.2607 61.123C61.7295 60.6855 60.4307 60.166 59.3643 59.5645L57.9492 61H56.2061L55.9395 50.4795H57.7031C58.0996 51.4775 58.6055 52.5303 59.2207 53.6377C59.8359 54.7451 60.5469 55.7363 61.3535 56.6113C62.1875 57.5273 63.1172 58.2725 64.1426 58.8467C65.1816 59.4209 66.3916 59.708 67.7725 59.708C69.6318 59.708 71.0537 59.2568 72.0381 58.3545C73.0361 57.4385 73.5352 56.29 73.5352 54.9092C73.5352 53.7744 73.1113 52.8242 72.2637 52.0586C71.4297 51.2793 70.1309 50.6094 68.3672 50.0488C67.2188 49.6797 66.1592 49.3379 65.1885 49.0234C64.2314 48.709 63.3291 48.3877 62.4814 48.0596C60.5264 47.2803 59.0703 46.166 58.1133 44.7168C57.1699 43.2676 56.6982 41.6475 56.6982 39.8564C56.6982 38.7217 56.9443 37.6348 57.4365 36.5957C57.9287 35.543 58.6465 34.5996 59.5898 33.7656C60.4922 32.9863 61.6475 32.3506 63.0557 31.8584C64.4639 31.3662 65.9951 31.1201 67.6494 31.1201C69.2627 31.1201 70.7734 31.3457 72.1816 31.7969C73.5898 32.2344 74.6973 32.6787 75.5039 33.1299L76.7549 31.8994H78.5391L78.7031 41.8252H76.9395C76.5293 40.7588 76.0439 39.6719 75.4834 38.5645C74.9365 37.4434 74.3555 36.5137 73.7402 35.7754C73.0703 34.9824 72.2979 34.3535 71.4229 33.8887C70.5479 33.4102 69.5225 33.1709 68.3467 33.1709C66.8701 33.1709 65.6602 33.5879 64.7168 34.4219C63.7871 35.2559 63.3223 36.2881 63.3223 37.5186C63.3223 38.6807 63.7256 39.6309 64.5322 40.3691C65.3525 41.1074 66.624 41.7568 68.3467 42.3174C69.3584 42.6592 70.3906 43.001 71.4434 43.3428C72.4961 43.6846 73.4326 44.0127 74.2529 44.3271C76.2354 45.0928 77.7393 46.1523 78.7646 47.5059C79.8037 48.8457 80.3232 50.5137 80.3232 52.5098C80.3232 53.7676 80.0293 54.9844 79.4414 56.1602C78.8535 57.3359 78.0605 58.3135 77.0625 59.0928C75.9688 59.9541 74.7041 60.6172 73.2686 61.082C71.833 61.5469 70.1582 61.7793 68.2441 61.7793Z" fill="#E8E0D0"/>
<path d="M54.1963 33.499C53.8135 33.54 53.2666 33.6152 52.5557 33.7246C51.8447 33.834 51.2021 34.1006 50.6279 34.5244C50.1221 34.8936 49.7598 35.5293 49.541 36.4316C49.3359 37.3203 49.2334 38.6328 49.2334 40.3691V61.1641H45.583L27.4541 38.667V52.3252C27.4541 54.0205 27.5635 55.3125 27.7822 56.2012C28.0146 57.0762 28.3838 57.7188 28.8896 58.1289C29.2588 58.4297 29.8467 58.6963 30.6533 58.9287C31.46 59.1611 32.1025 59.3184 32.5811 59.4004V61H20.0713V59.4004C20.6045 59.3594 21.2129 59.2637 21.8965 59.1133C22.5938 58.9492 23.1748 58.7031 23.6396 58.375C24.1729 57.9785 24.5352 57.3838 24.7266 56.5908C24.9316 55.7842 25.0342 54.4375 25.0342 52.5508V38.7695C25.0342 38.0859 24.9248 37.4434 24.7061 36.8418C24.501 36.2266 24.1729 35.7002 23.7217 35.2627C23.2432 34.7979 22.6895 34.4355 22.0605 34.1758C21.4453 33.9023 20.7412 33.6904 19.9482 33.54V31.8994H30.8994L46.8135 51.5869V40.5742C46.8135 38.8242 46.6973 37.5254 46.4648 36.6777C46.2324 35.8164 45.8633 35.1807 45.3574 34.7705C44.9609 34.4561 44.373 34.1895 43.5938 33.9707C42.8145 33.7383 42.1855 33.5811 41.707 33.499V31.8994H54.1963V33.499Z" fill="#E8E0D0"/>
<path d="M28 67H92" stroke="#6B8F71" stroke-width="1.5" stroke-linecap="round"/>
<path d="M80.7437 85.3364L80.5898 87.5H74.9041V87.136C74.9861 87.1292 75.104 87.1172 75.2578 87.1001C75.415 87.083 75.5244 87.0608 75.5859 87.0334C75.6885 86.989 75.762 86.9241 75.8064 86.8386C75.8542 86.7532 75.8782 86.6438 75.8782 86.5105V81.3015C75.8782 81.1853 75.8577 81.0828 75.8167 80.9939C75.7791 80.905 75.7021 80.8333 75.5859 80.7786C75.5073 80.7375 75.3962 80.6982 75.2527 80.6606C75.1125 80.6196 74.9963 80.5957 74.9041 80.5889V80.2249H77.9751V80.5889C77.8794 80.5923 77.7546 80.6094 77.6008 80.6401C77.4504 80.6709 77.3411 80.6982 77.2727 80.7222C77.1565 80.7632 77.0762 80.8333 77.0317 80.9324C76.9907 81.0315 76.9702 81.1375 76.9702 81.2502V86.1362C76.9702 86.3618 76.9805 86.5378 77.001 86.6643C77.0249 86.7874 77.0779 86.8831 77.1599 86.9514C77.2385 87.0129 77.3547 87.054 77.5085 87.0745C77.6658 87.0916 77.8845 87.1001 78.1648 87.1001C78.2913 87.1001 78.4229 87.0967 78.5596 87.0898C78.6963 87.083 78.8262 87.0693 78.9492 87.0488C79.0688 87.0283 79.1782 87.001 79.2773 86.9668C79.3799 86.9292 79.4551 86.8831 79.5029 86.8284C79.6431 86.6711 79.8054 86.4336 79.99 86.1157C80.178 85.7944 80.3079 85.5347 80.3796 85.3364H80.7437Z" fill="#8B7E6A"/>
<path d="M74.6426 87.5H71.6125V87.136C71.8792 87.1189 72.0996 87.0847 72.2739 87.0334C72.4517 86.9822 72.5405 86.9189 72.5405 86.8438C72.5405 86.813 72.5371 86.7754 72.5303 86.731C72.5234 86.6865 72.5132 86.6472 72.4995 86.613L71.8945 84.9827H69.3464C69.2507 85.2219 69.1721 85.4304 69.1106 85.6082C69.0525 85.7859 68.9995 85.95 68.9517 86.1003C68.9072 86.2473 68.8765 86.3669 68.8594 86.4592C68.8423 86.5515 68.8337 86.6267 68.8337 86.6848C68.8337 86.8215 68.9414 86.9275 69.1567 87.0027C69.3721 87.0779 69.6147 87.1223 69.8848 87.136V87.5H67.147V87.136C67.2358 87.1292 67.3469 87.1104 67.4802 87.0796C67.6135 87.0454 67.7229 87.001 67.8083 86.9463C67.9451 86.854 68.051 86.7583 68.1262 86.6592C68.2014 86.5566 68.2749 86.4165 68.3467 86.2388C68.7124 85.3262 69.1157 84.3008 69.5566 83.1626C69.9976 82.0244 70.3906 81.011 70.7358 80.1223H71.146L73.571 86.3977C73.6223 86.531 73.6804 86.6387 73.7454 86.7207C73.8103 86.8027 73.9009 86.8831 74.0171 86.9617C74.0957 87.0095 74.1982 87.0505 74.3247 87.0847C74.4512 87.1155 74.5571 87.1326 74.6426 87.136V87.5ZM71.71 84.5264L70.6077 81.7065L69.5259 84.5264H71.71Z" fill="#8B7E6A"/>
<path d="M67.27 82.1987H66.9163C66.8855 82.0757 66.8291 81.9304 66.7471 81.7629C66.6685 81.592 66.5796 81.4314 66.4805 81.281C66.3779 81.1238 66.2651 80.9871 66.1421 80.8708C66.0225 80.7512 65.9062 80.6829 65.7935 80.6658C65.6875 80.6521 65.5542 80.6418 65.3936 80.635C65.2329 80.6282 65.0842 80.6248 64.9475 80.6248H64.6501V86.4438C64.6501 86.5566 64.6741 86.6609 64.7219 86.7566C64.7698 86.8489 64.8535 86.9207 64.9731 86.9719C65.0347 86.9958 65.1628 87.0283 65.3577 87.0693C65.5559 87.1104 65.7097 87.1326 65.8191 87.136V87.5H62.384V87.136C62.4797 87.1292 62.625 87.1155 62.8198 87.095C63.0181 87.0745 63.1548 87.0488 63.23 87.0181C63.3428 86.9736 63.4248 86.9104 63.4761 86.8284C63.5308 86.7429 63.5581 86.6301 63.5581 86.49V80.6248H63.2607C63.1548 80.6248 63.0232 80.6282 62.866 80.635C62.7087 80.6384 62.5583 80.6487 62.4148 80.6658C62.302 80.6794 62.1841 80.7478 62.061 80.8708C61.9414 80.9905 61.8303 81.1272 61.7278 81.281C61.6252 81.4348 61.5347 81.5989 61.4561 81.7732C61.3774 81.9441 61.3228 82.0859 61.292 82.1987H60.9331V80.2249H67.27V82.1987Z" fill="#8B7E6A"/>
<path d="M61.0715 87.5H59.113C58.679 86.8198 58.2859 86.2319 57.9338 85.7363C57.5852 85.2407 57.2058 84.7297 56.7957 84.2034H56.0522V86.5105C56.0522 86.6301 56.071 86.7361 56.1086 86.8284C56.1462 86.9172 56.2266 86.9856 56.3496 87.0334C56.4111 87.0574 56.5188 87.0796 56.6726 87.1001C56.8264 87.1206 56.9563 87.1326 57.0623 87.136V87.5H53.9861V87.136C54.0681 87.1292 54.186 87.1172 54.3398 87.1001C54.4971 87.083 54.6064 87.0608 54.668 87.0334C54.7705 86.989 54.844 86.9241 54.8884 86.8386C54.9363 86.7532 54.9602 86.6438 54.9602 86.5105V81.2502C54.9602 81.1306 54.9431 81.0247 54.9089 80.9324C54.8748 80.8401 54.7944 80.77 54.668 80.7222C54.5825 80.6914 54.4714 80.6641 54.3347 80.6401C54.198 80.6128 54.0818 80.5957 53.9861 80.5889V80.2249H57.3442C57.6519 80.2249 57.9407 80.2573 58.2107 80.3223C58.4807 80.3838 58.7251 80.4846 58.9438 80.6248C59.1558 80.7615 59.325 80.9409 59.4514 81.1631C59.5779 81.3818 59.6411 81.6467 59.6411 81.9578C59.6411 82.238 59.5984 82.4858 59.5129 82.7012C59.4275 82.9165 59.301 83.1028 59.1335 83.26C58.9797 83.407 58.7952 83.5352 58.5798 83.6445C58.3645 83.7505 58.127 83.8411 57.8672 83.9163C58.2261 84.3914 58.5234 84.7913 58.7593 85.116C58.9985 85.4407 59.2908 85.8354 59.636 86.3003C59.7864 86.5054 59.9214 86.6575 60.041 86.7566C60.1641 86.8523 60.2854 86.9309 60.405 86.9924C60.4939 87.0369 60.605 87.071 60.7383 87.095C60.8716 87.1189 60.9827 87.1326 61.0715 87.136V87.5ZM58.3748 82.0757C58.3748 81.6348 58.2483 81.2861 57.9954 81.0298C57.7424 80.77 57.3853 80.6401 56.9238 80.6401H56.0522V83.7625H56.7239C57.1956 83.7625 57.5886 83.6121 57.9031 83.3113C58.2175 83.0071 58.3748 82.5952 58.3748 82.0757Z" fill="#8B7E6A"/>
<path d="M52.0481 81.0862C52.3694 81.4211 52.6206 81.8262 52.8018 82.3013C52.9829 82.7729 53.0735 83.2959 53.0735 83.8701C53.0735 84.4478 52.9812 84.9724 52.7966 85.4441C52.6121 85.9158 52.3557 86.3174 52.0276 86.6489C51.7097 86.9771 51.3406 87.23 50.9202 87.4077C50.4998 87.5854 50.052 87.6743 49.5769 87.6743C49.071 87.6743 48.6028 87.5803 48.1721 87.3923C47.7449 87.2009 47.3774 86.936 47.0698 86.5977C46.7622 86.2661 46.5195 85.8645 46.3418 85.3928C46.1675 84.9177 46.0803 84.4102 46.0803 83.8701C46.0803 83.2788 46.1726 82.7524 46.3572 82.291C46.5417 81.8262 46.7964 81.4246 47.1211 81.0862C47.4424 80.7512 47.8149 80.4949 48.2388 80.3171C48.666 80.1394 49.1121 80.0505 49.5769 80.0505C50.0588 80.0505 50.5134 80.1411 50.9407 80.3223C51.3679 80.5034 51.7371 80.7581 52.0481 81.0862ZM51.2842 86.2439C51.4756 85.9329 51.614 85.5808 51.6995 85.1877C51.7883 84.7947 51.8328 84.3555 51.8328 83.8701C51.8328 83.3711 51.7832 82.9131 51.6841 82.4961C51.5884 82.0791 51.4465 81.7236 51.2585 81.4297C51.0706 81.1392 50.8347 80.9136 50.551 80.7529C50.2673 80.5889 49.9426 80.5068 49.5769 80.5068C49.1667 80.5068 48.8181 80.6008 48.531 80.7888C48.2439 80.9768 48.0098 81.228 47.8286 81.5425C47.6577 81.8433 47.5295 82.1953 47.4441 82.5986C47.3621 83.002 47.321 83.4258 47.321 83.8701C47.321 84.3623 47.3655 84.8066 47.4543 85.2031C47.5432 85.5996 47.6833 85.9517 47.8748 86.2593C48.0593 86.5601 48.2917 86.7959 48.572 86.9668C48.8523 87.1343 49.1873 87.218 49.5769 87.218C49.9426 87.218 50.2725 87.1326 50.5664 86.9617C50.8604 86.7908 51.0996 86.5515 51.2842 86.2439Z" fill="#8B7E6A"/>
<path d="M45.3318 82.0193C45.3318 82.3987 45.2566 82.7354 45.1062 83.0293C44.9592 83.3198 44.7542 83.5608 44.491 83.7522C44.2312 83.9436 43.9458 84.0837 43.6348 84.1726C43.3237 84.2615 42.9939 84.3059 42.6453 84.3059H41.8301V86.5105C41.8301 86.6301 41.8489 86.7361 41.8865 86.8284C41.9275 86.9172 42.0095 86.9856 42.1326 87.0334C42.1941 87.0574 42.3018 87.0796 42.4556 87.1001C42.6128 87.1206 42.7563 87.1326 42.8862 87.136V87.5H39.7639V87.136C39.8459 87.1292 39.9639 87.1172 40.1177 87.1001C40.2749 87.083 40.3843 87.0608 40.4458 87.0334C40.5483 86.989 40.6218 86.9241 40.6663 86.8386C40.7141 86.7532 40.738 86.6438 40.738 86.5105V81.2605C40.738 81.1409 40.7209 81.0332 40.6868 80.9375C40.6526 80.8418 40.5723 80.77 40.4458 80.7222C40.3159 80.6777 40.186 80.647 40.0562 80.6299C39.9297 80.6094 39.8203 80.5957 39.728 80.5889V80.2249H43.0503C43.7271 80.2249 44.2756 80.3889 44.696 80.717C45.1199 81.0417 45.3318 81.4758 45.3318 82.0193ZM43.7732 83.26C43.8894 83.0959 43.9663 82.9268 44.0039 82.7524C44.0415 82.5747 44.0603 82.4158 44.0603 82.2756C44.0603 82.0808 44.0364 81.8826 43.9885 81.6809C43.9441 81.4792 43.8655 81.3032 43.7527 81.1528C43.6331 80.9922 43.4758 80.8674 43.281 80.7786C43.0862 80.6897 42.8435 80.6453 42.553 80.6453H41.8301V83.8599H42.353C42.7222 83.8599 43.0212 83.8035 43.2502 83.6907C43.4827 83.5745 43.657 83.4309 43.7732 83.26Z" fill="#8B7E6A"/>
</g>
<defs>
<clipPath id="clip0_183_82">
<rect width="120" height="120" fill="white"/>
</clipPath>
</defs>
</svg>
