<svg width="120" height="120" viewBox="0 0 120 120" fill="none" xmlns="http://www.w3.org/2000/svg">
<path d="M60 118C92.0325 118 118 92.0325 118 60C118 27.9675 92.0325 2 60 2C27.9675 2 2 27.9675 2 60C2 92.0325 27.9675 118 60 118Z" fill="#185FA5"/>
<path opacity="0.8" d="M28 86C34.6667 82 41.3333 82 48 86C54.6667 90 61.3333 90 68 86C74.6667 82 81.3333 82 88 86" stroke="white" stroke-width="2" stroke-linecap="round"/>
<path opacity="0.6" d="M28 96C34.6667 92 41.3333 92 48 96C54.6667 100 61.3333 100 68 96C74.6667 92 81.3333 92 88 96" stroke="white" stroke-width="2" stroke-linecap="round"/>
<path d="M73.2852 72.7793C72.681 72.7793 72.0579 72.3451 71.416 71.4766L49.4395 40.3242V64.5098C49.4395 67.0775 49.5716 68.8333 49.8359 69.7773C49.9115 69.9284 50.2324 70.1172 50.7988 70.3438C51.403 70.5326 52.0449 70.7025 52.7246 70.8535C53.4043 70.9668 53.8574 71.0234 54.084 71.0234C54.1973 71.0234 54.2539 71.25 54.2539 71.7031C54.2917 72.1562 54.2728 72.4772 54.1973 72.666C52.3092 72.5905 50.8177 72.5339 49.7227 72.4961C48.6654 72.4206 47.9857 72.3828 47.6836 72.3828L41.1699 72.666C41.0566 72.5527 41 72.2695 41 71.8164C41 71.2878 41.0566 71.0234 41.1699 71.0234C41.5475 71.0234 42.0762 70.9668 42.7559 70.8535C43.4355 70.7025 44.0775 70.5326 44.6816 70.3438C45.2858 70.1172 45.6257 69.8906 45.7012 69.6641C46.0788 68.7578 46.2676 66.9831 46.2676 64.3398V42.0801C46.2676 40.1543 46.1354 38.7383 45.8711 37.832C45.7956 37.6055 45.4557 37.4167 44.8516 37.2656C44.2852 37.0768 43.6621 36.9258 42.9824 36.8125C42.3027 36.6992 41.7741 36.6426 41.3965 36.6426C41.2454 36.6426 41.1699 36.3971 41.1699 35.9062C41.1699 35.4531 41.2454 35.151 41.3965 35C42.8691 35.0378 44.0775 35.0755 45.0215 35.1133C46.0033 35.1133 46.7207 35.1133 47.1738 35.1133C48.1556 35.1133 49.0241 35.1133 49.7793 35.1133C50.5345 35.0755 51.1764 35.0378 51.7051 35C52.4225 36.2839 54.3672 39.248 57.5391 43.8926C60.7487 48.4993 65.2044 54.7865 70.9062 62.7539C71.0195 62.112 71.0762 61.3379 71.0762 60.4316V42.8164C71.0762 40.4375 70.944 38.776 70.6797 37.832C70.6042 37.6055 70.2643 37.3978 69.6602 37.209C69.056 37.0202 68.4141 36.8691 67.7344 36.7559C67.0547 36.6048 66.5449 36.5293 66.2051 36.5293C66.054 36.5293 65.9785 36.3027 65.9785 35.8496C65.9785 35.4342 66.054 35.151 66.2051 35C66.5449 35 67.1113 35.0378 67.9043 35.1133C68.6973 35.151 69.5469 35.2077 70.4531 35.2832C71.3971 35.321 72.209 35.3398 72.8887 35.3398C73.8704 35.3398 75.1165 35.2832 76.627 35.1699C78.0996 35.0566 78.9681 35 79.2324 35C79.3079 35.3021 79.3457 35.5853 79.3457 35.8496C79.3457 36.3027 79.2702 36.5293 79.1191 36.5293C78.8926 36.5293 78.4206 36.6048 77.7031 36.7559C76.9857 36.9069 76.306 37.0768 75.6641 37.2656C75.0599 37.4544 74.7201 37.6432 74.6445 37.832C74.4935 38.4362 74.3802 39.1725 74.3047 40.041C74.2292 40.9095 74.1914 41.929 74.1914 43.0996V64.623C74.1914 66.9642 74.248 69.6074 74.3613 72.5527C74.2103 72.7038 73.8516 72.7793 73.2852 72.7793Z" fill="white"/>
</svg>
